# xmcd CD database file
#
# Track frame offsets:
#	150
#	17446
#	34668
#	53668
#	75208
#	96103
#	122455
#	135444
#	164247
#	228070
#	266942
#
# Disc length: 3818 seconds
#
# Revision: 0
# Processed by: cddbd v1.4PL0 Copyright (c) Steve Scherf et al.
# Submitted via: CDex 1.40Beta9
#
DISCID=7c0ee80b
DTITLE=Lisa Hunt - Forever Soul
DYEAR=1900
DGENRE=Blues
TTITLE0=Hold on, I'm Coming
TTITLE1=Ain't too Proud to Beg
TTITLE2=Say a Little Prayer
TTITLE3=Sweet Soul Music
TTITLE4=Midnight Hour
TTITLE5=Riverdeep
TTITLE6=My Girl
TTITLE7=Natural Woman
TTITLE8=Respect
TTITLE9=Don't Leave me This Way
TTITLE10=Under the Boardwalk
EXTD=ID3G: 0
EXTT0=
EXTT1=
EXTT2=
EXTT3=
EXTT4=
EXTT5=
EXTT6=
EXTT7=
EXTT8=
EXTT9=
EXTT10=
PLAYORDER=
